HIERARCHY
ROOT Hips
{
    OFFSET 0.000000 0.000000 0.000000
    CHANNELS 6 Xposition Yposition Zposition Zrotation Xrotation Yrotation
    JOINT Spine
    {
        OFFSET -0.000000 8.079700 0.000000
        CHANNELS 3 Zrotation Xrotation Yrotation
        JOINT Spine1
        {
            OFFSET -0.000000 23.289207 0.000000
            CHANNELS 3 Zrotation Xrotation Yrotation
            JOINT Neck
            {
                OFFSET -0.000000 23.193563 2.108506
                CHANNELS 3 Zrotation Xrotation Yrotation
                JOINT Head
                {
                    OFFSET -0.000000 13.794610 -1.970658
                    CHANNELS 3 Zrotation Xrotation Yrotation
                    End Site
                    {
                        OFFSET -0.000000 24.633232 0.000000
                    }
                }
            }
            JOINT LeftShoulder
            {
                OFFSET 3.964071 21.437269 -0.109506
                CHANNELS 3 Zrotation Xrotation Yrotation
                JOINT LeftArm
                {
                    OFFSET 10.889085 0.000000 0.000000
                    CHANNELS 3 Zrotation Xrotation Yrotation
                    JOINT LeftForeArm
                    {
                        OFFSET 33.323662 0.000000 0.000000
                        CHANNELS 3 Zrotation Xrotation Yrotation
                        JOINT LeftHand
                        {
                            OFFSET 25.127829 0.000000 0.000000
                            CHANNELS 3 Zrotation Xrotation Yrotation
                            End Site
                            {
                                OFFSET 14.779941 0.000000 0.000000
                            }
                        }
                    }
                }
            }
            JOINT RightShoulder
            {
                OFFSET -3.907116 21.437269 -0.109506
                CHANNELS 3 Zrotation Xrotation Yrotation
                JOINT RightArm
                {
                    OFFSET -10.889085 0.000000 0.000000
                    CHANNELS 3 Zrotation Xrotation Yrotation
                    JOINT RightForeArm
                    {
                        OFFSET -33.323662 0.000000 0.000000
                        CHANNELS 3 Zrotation Xrotation Yrotation
                        JOINT RightHand
                        {
                            OFFSET -25.127829 0.000000 0.000000
                            CHANNELS 3 Zrotation Xrotation Yrotation
                            End Site
                            {
                                OFFSET -14.779941 0.000000 0.000000
                            }
                        }
                    }
                }
            }
        }
    }
    JOINT LeftUpLeg
    {
        OFFSET 9.853293 0.000000 0.000000
        CHANNELS 3 Zrotation Xrotation Yrotation
        JOINT LeftLeg
        {
            OFFSET -0.000000 -42.191887 0.000000
            CHANNELS 3 Zrotation Xrotation Yrotation
            JOINT LeftFoot
            {
                OFFSET -0.000000 -39.359688 0.000000
                CHANNELS 3 Zrotation Xrotation Yrotation
                JOINT LeftToeBase
                {
                    OFFSET -0.000000 -6.404640 14.779941
                    CHANNELS 3 Zrotation Xrotation Yrotation
                    End Site
                    {
                        OFFSET -0.000000 0.000000 3.941317
                    }
                }
            }
        }
    }
    JOINT RightUpLeg
    {
        OFFSET -9.853293 0.000000 0.000000
        CHANNELS 3 Zrotation Xrotation Yrotation
        JOINT RightLeg
        {
            OFFSET -0.000000 -42.191887 0.000000
            CHANNELS 3 Zrotation Xrotation Yrotation
            JOINT RightFoot
            {
                OFFSET -0.000000 -39.359688 0.000000
                CHANNELS 3 Zrotation Xrotation Yrotation
                JOINT RightToeBase
                {
                    OFFSET -0.000000 -6.404640 14.779941
                    CHANNELS 3 Zrotation Xrotation Yrotation
                    End Site
                    {
                        OFFSET -0.000000 0.000000 3.941317
                    }
                }
            }
        }
    }
}
MOTION
Frames:    11
Frame Time:    0.008333
0.803413    91.320084    174.474075    0.791925    0.098596    176.760269    -0.306678    -3.034782    -0.263578    1.176182    1.902338    -0.274995    3.170624    24.380207    7.823962    -0.261092    -1.529221    8.350455    15.514200    3.171807    7.002738    -20.930460    -3.993562    -1.309250    5.779203    -2.725065    -6.739459    12.073711    -2.524197    -1.318813    -13.001805    1.048535    1.669060    22.855412    2.595178    2.405945    -3.352479    1.125957    -1.705015    -13.056722    -0.203089    11.142819    0.763562    5.966535    14.077237    -2.610876    -1.311906    11.383391    2.583851    -4.399121    7.942933    0.000000    0.000000    0.000000    -3.529748    3.860437    2.191610    5.819243    2.844144    -1.540372    -6.228021    -6.713020    -11.577698    0.000000    0.000000    0.000000    
0.801463    91.321991    174.466858    0.785159    0.095644    176.757431    -0.337425    -3.034401    -0.252631    1.216794    1.898419    -0.263809    3.310107    24.204823    7.769551    -0.488793    -1.360772    8.264658    15.503345    3.146191    6.963010    -20.923218    -3.971451    -1.277035    5.785289    -2.760896    -6.742322    12.058511    -2.556218    -1.289275    -13.012378    1.052206    1.642963    22.951612    3.152843    2.584774    -3.704098    0.745480    -2.185919    -12.822676    -0.620028    11.484615    0.752078    5.965173    14.088982    -2.604756    -1.311801    11.412892    2.573953    -4.387974    7.912252    0.000000    0.000000    0.000000    -3.541735    3.869291    2.210812    5.823984    2.831810    -1.528370    -6.232817    -6.710137    -11.592215    0.000000    0.000000    0.000000    
0.820213    91.323944    174.454803    0.783945    0.071699    176.821747    -0.401939    -3.077405    -0.284017    1.282387    1.930685    -0.294821    3.720433    23.993118    7.736641    -1.068295    -1.076423    8.168189    15.506839    3.148826    6.976639    -20.914650    -4.019000    -1.298728    5.762188    -2.777552    -6.743948    12.064302    -2.571353    -1.262109    -13.022383    1.041056    1.630978    22.825747    2.573477    2.414609    -3.321922    0.905930    -1.625315    -13.373425    -0.460509    11.217571    0.785192    5.937917    14.021702    -2.627555    -1.301523    11.433911    2.586230    -4.372014    7.882985    0.000000    0.000000    0.000000    -3.510587    3.890278    2.172601    5.796161    2.775012    -1.594979    -6.211029    -6.702523    -11.559915    0.000000    0.000000    0.000000    
0.821522    91.324486    174.449844    0.788893    0.058225    176.815536    -0.407072    -3.085959    -0.280580    1.297015    1.931389    -0.291416    3.709816    24.035975    7.701974    -1.048823    -1.130390    8.135309    15.491647    3.138069    6.977333    -20.885221    -4.027058    -1.299014    5.751863    -2.787700    -6.737195    12.075347    -2.579992    -1.237735    -13.032456    1.033294    1.620833    22.818348    2.545220    2.408520    -3.319126    0.932869    -1.591199    -13.413035    -0.435177    11.206287    0.788996    5.925558    14.024062    -2.621084    -1.293581    11.420413    2.563761    -4.381388    7.901327    0.000000    0.000000    0.000000    -3.505930    3.882011    2.182815    5.798484    2.772118    -1.595257    -6.231708    -6.690895    -11.551229    0.000000    0.000000    0.000000    
0.823231    91.323593    174.441513    0.793504    0.055128    176.813354    -0.403448    -3.084191    -0.284797    1.294734    1.934733    -0.296000    3.846429    24.103481    7.693238    -1.230918    -1.188904    8.110931    15.499685    3.099521    6.995539    -20.868967    -4.032783    -1.294351    5.747112    -2.764592    -6.708666    12.135270    -2.562536    -1.268543    -13.045713    1.036138    1.608534    22.828661    2.523998    2.438940    -3.335307    0.984525    -1.584449    -13.448414    -0.383868    11.179315    0.796611    5.928037    14.020221    -2.624317    -1.297940    11.440662    2.567739    -4.382041    7.892232    0.000000    0.000000    0.000000    -3.501316    3.890575    2.176063    5.796816    2.765443    -1.576269    -6.222443    -6.700970    -11.560601    0.000000    0.000000    0.000000    
0.823510    91.324249    174.434357    0.793010    0.043423    176.808289    -0.434965    -3.080434    -0.280220    1.354266    1.912250    -0.291288    3.800047    24.162222    7.690270    -1.194029    -1.258529    8.111372    15.454797    3.090778    6.984472    -20.834570    -4.037385    -1.286229    5.752620    -2.744722    -6.710362    12.056988    -2.536523    -1.222645    -13.082555    0.918985    1.667063    22.848200    2.668243    2.302374    -3.369383    1.011055    -1.537321    -13.477928    -0.354931    11.142993    0.799623    5.919285    14.007806    -2.632612    -1.299471    11.477180    2.567940    -4.373009    7.885102    0.000000    0.000000    0.000000    -3.501115    3.892142    2.203931    5.797992    2.737346    -1.623183    -6.229060    -6.683931    -11.536411    0.000000    0.000000    0.000000    
0.827056    91.324257    174.427368    0.798548    0.043236    176.797531    -0.433782    -3.071850    -0.280156    1.345692    1.905882    -0.291041    3.821391    24.161110    7.706061    -1.197201    -1.249485    8.129024    15.469467    3.081556    6.992922    -20.820772    -4.039201    -1.285303    5.753538    -2.711207    -6.693389    12.051903    -2.504272    -1.227713    -13.062694    0.929530    1.676807    22.837116    2.650137    2.310139    -3.386938    1.080079    -1.540972    -13.490548    -0.289619    11.160150    0.810986    5.920897    13.985359    -2.636523    -1.288564    11.496770    2.552246    -4.382487    7.896315    0.000000    0.000000    0.000000    -3.489766    3.899139    2.195759    5.787932    2.734896    -1.587172    -6.238312    -6.677906    -11.552828    0.000000    0.000000    0.000000    
0.826809    91.323921    174.423798    0.795044    0.027331    176.790070    -0.430120    -3.079434    -0.286566    1.334501    1.904580    -0.297358    3.779007    24.175995    7.726640    -1.139203    -1.275257    8.156315    15.468645    3.067630    7.013123    -20.792999    -3.951095    -1.272485    5.753592    -2.723001    -6.693322    12.082464    -2.511205    -1.178482    -13.066919    0.922552    1.692572    22.825432    2.529355    2.263790    -3.347059    1.186859    -1.395552    -13.559685    -0.175245    11.079934    0.808186    5.900518    13.951620    -2.633874    -1.274123    11.533016    2.554601    -4.379452    7.888540    0.000000    0.000000    0.000000    -3.496289    3.885415    2.223549    5.799998    2.726132    -1.643502    -6.237681    -6.672503    -11.533562    0.000000    0.000000    0.000000    
0.828451    91.317879    174.427719    0.796303    -0.019993    176.785004    -0.412727    -3.117714    -0.288009    1.290139    1.909268    -0.298504    3.801908    24.209682    7.734533    -1.122674    -1.338115    8.169443    15.504441    3.070602    7.021528    -20.786619    -3.930295    -1.273614    5.760887    -2.709513    -6.683921    12.108425    -2.495910    -1.158254    -13.030378    0.935245    1.698306    22.816456    2.518404    2.276031    -3.329757    1.270482    -1.382247    -13.689414    -0.087375    10.944704    0.816673    5.842239    13.932888    -2.638562    -1.259478    11.571602    2.569263    -4.409557    7.884330    0.000000    0.000000    0.000000    -3.489309    3.829324    2.202597    5.793368    2.738373    -1.590915    -6.222426    -6.695268    -11.559796    0.000000    0.000000    0.000000    
0.828057    91.320435    174.423859    0.787028    -0.034069    176.773575    -0.419317    -3.133696    -0.291934    1.280693    1.933985    -0.302270    3.796106    24.225506    7.757783    -1.115155    -1.395295    8.194356    15.508800    3.085809    7.052041    -20.774977    -3.947182    -1.289503    5.769440    -2.697617    -6.668313    12.078272    -2.483691    -1.155584    -13.031795    0.927006    1.704994    22.828508    2.540360    2.289651    -3.365323    1.311248    -1.402964    -13.606950    -0.043570    10.977150    0.806185    5.824521    13.916745    -2.637952    -1.249373    11.610797    2.559677    -4.408777    7.878899    0.000000    0.000000    0.000000    -3.499545    3.816226    2.184370    5.792208    2.739809    -1.568079    -6.228705    -6.687991    -11.546691    0.000000    0.000000    0.000000    
0.829913    91.321091    174.418350    0.778619    -0.044914    176.769684    -0.445325    -3.154972    -0.293251    1.306496    1.985626    -0.303888    3.753186    24.156248    7.768041    -1.059153    -1.360862    8.208056    15.517481    3.055110    7.082087    -20.775320    -3.954910    -1.307364    5.762745    -2.691829    -6.646145    12.105343    -2.481480    -1.172340    -13.076659    0.895006    1.690938    22.868053    2.577338    2.290923    -3.356323    1.267158    -1.363822    -13.759478    -0.102475    10.987450    0.799585    5.811275    13.885567    -2.632319    -1.236447    11.621286    2.553181    -4.411344    7.895185    0.000000    0.000000    0.000000    -3.506189    3.810919    2.193568    5.789158    2.730174    -1.594012    -6.208519    -6.689989    -11.530089    0.000000    0.000000    0.000000    
